<svg version="1.1" id="Layer_1" xmlns="http://www.w3.org/2000/svg" xmlns:xlink="http://www.w3.org/1999/xlink" x="0px" y="0px"
	 width="100%" viewBox="0 0 215 264" enable-background="new 0 0 215 264" xml:space="preserve">
<path fill="#FDFEFD" opacity="1.000000" stroke="none" 
	d="
M112.000000,265.000000 
	C74.666672,265.000000 37.833336,265.000000 1.000005,265.000000 
	C1.000003,177.000000 1.000003,89.000015 1.000002,1.000017 
	C72.666656,1.000011 144.333313,1.000011 215.999969,1.000006 
	C215.999985,88.999977 215.999985,176.999954 216.000000,264.999969 
	C181.500000,265.000000 147.000000,265.000000 112.000000,265.000000 
M177.105438,191.533890 
	C183.369202,178.235641 181.591995,166.022934 170.905457,158.485931 
	C165.222397,154.477783 158.299911,151.165222 151.514435,150.001038 
	C136.993179,147.509659 122.209267,146.487885 107.507263,145.145340 
	C102.497787,144.687897 97.411392,145.072784 91.751534,145.072784 
	C94.465553,139.322571 96.867836,135.291809 103.105820,133.419098 
	C118.183495,128.892609 133.143005,123.788734 147.747070,117.915359 
	C165.612579,110.730286 181.998032,100.919868 194.658585,85.945343 
	C213.074661,64.163368 207.759552,35.301826 177.705368,27.667860 
	C164.132599,24.220289 150.576996,25.095322 137.125748,27.637602 
	C110.051544,32.754623 84.329765,42.259804 59.094055,53.058987 
	C50.775696,56.618675 41.691570,59.267490 35.682800,66.742622 
	C31.948893,71.387733 28.067650,76.107651 25.404440,81.376266 
	C21.080725,89.929848 16.922710,98.726089 14.166766,107.863861 
	C11.888861,115.416611 15.558153,118.788017 22.903187,116.092880 
	C36.736969,111.016823 50.220676,104.975121 63.777412,99.165665 
	C66.383347,98.048950 68.656464,96.155563 72.207390,93.909271 
	C68.185791,92.150085 65.488266,90.970100 61.647060,89.289833 
	C65.171326,87.104225 67.676132,85.277145 70.407906,83.900421 
	C90.539093,73.754982 111.723114,66.455841 133.674637,61.542591 
	C146.204926,58.738029 158.979675,57.302219 171.792801,59.966125 
	C184.676804,62.644768 189.434372,76.780472 180.593063,86.550529 
	C177.394150,90.085480 173.615128,93.299400 169.585007,95.842323 
	C153.531570,105.971703 135.585449,111.591156 117.551521,116.919479 
	C114.456955,117.833809 111.334564,118.653946 108.225021,119.517586 
	C107.978691,119.163895 107.732368,118.810211 107.486038,118.456528 
	C116.201042,105.505898 124.916046,92.555275 133.631042,79.604645 
	C133.311462,79.232620 132.991898,78.860596 132.672318,78.488571 
	C131.278519,78.697685 129.857315,78.796150 128.495331,79.133629 
	C118.704109,81.559715 110.008514,86.299812 103.521744,93.883789 
	C95.223930,103.585136 87.903648,114.116890 79.913826,124.091934 
	C78.206383,126.223640 75.666672,128.210541 73.111427,129.050491 
	C62.392063,132.574036 51.407898,135.307983 40.745396,138.983002 
	C33.589653,141.449326 32.630089,149.964600 38.704193,154.296661 
	C40.520508,155.592056 42.867485,156.491226 45.080612,156.807648 
	C49.268719,157.406479 53.535931,157.451996 58.668503,157.785828 
	C57.561340,159.922165 56.805656,161.475388 55.967491,162.982742 
	C48.451298,176.499893 40.397415,189.819977 36.485798,204.948288 
	C30.997227,226.175583 40.510899,242.226959 62.305534,246.016876 
	C67.832260,246.977921 73.566467,247.297729 79.179169,247.113739 
	C99.841049,246.436432 118.337173,238.672852 135.958496,228.644424 
	C152.129303,219.441513 167.101883,208.735367 177.105438,191.533890 
z"/>
<path fill="#030303" opacity="1.000000" stroke="none" 
	d="
M176.971130,191.883331 
	C167.101883,208.735367 152.129303,219.441513 135.958496,228.644424 
	C118.337173,238.672852 99.841049,246.436432 79.179169,247.113739 
	C73.566467,247.297729 67.832260,246.977921 62.305534,246.016876 
	C40.510899,242.226959 30.997227,226.175583 36.485798,204.948288 
	C40.397415,189.819977 48.451298,176.499893 55.967491,162.982742 
	C56.805656,161.475388 57.561340,159.922165 58.668503,157.785828 
	C53.535931,157.451996 49.268719,157.406479 45.080612,156.807648 
	C42.867485,156.491226 40.520508,155.592056 38.704193,154.296661 
	C32.630089,149.964600 33.589653,141.449326 40.745396,138.983002 
	C51.407898,135.307983 62.392063,132.574036 73.111427,129.050491 
	C75.666672,128.210541 78.206383,126.223640 79.913826,124.091934 
	C87.903648,114.116890 95.223930,103.585136 103.521744,93.883789 
	C110.008514,86.299812 118.704109,81.559715 128.495331,79.133629 
	C129.857315,78.796150 131.278519,78.697685 132.672318,78.488571 
	C132.991898,78.860596 133.311462,79.232620 133.631042,79.604645 
	C124.916046,92.555275 116.201042,105.505898 107.486038,118.456528 
	C107.732368,118.810211 107.978691,119.163895 108.225021,119.517586 
	C111.334564,118.653946 114.456955,117.833809 117.551521,116.919479 
	C135.585449,111.591156 153.531570,105.971703 169.585007,95.842323 
	C173.615128,93.299400 177.394150,90.085480 180.593063,86.550529 
	C189.434372,76.780472 184.676804,62.644768 171.792801,59.966125 
	C158.979675,57.302219 146.204926,58.738029 133.674637,61.542591 
	C111.723114,66.455841 90.539093,73.754982 70.407906,83.900421 
	C67.676132,85.277145 65.171326,87.104225 61.647060,89.289833 
	C65.488266,90.970100 68.185791,92.150085 72.207390,93.909271 
	C68.656464,96.155563 66.383347,98.048950 63.777412,99.165665 
	C50.220676,104.975121 36.736969,111.016823 22.903187,116.092880 
	C15.558153,118.788017 11.888861,115.416611 14.166766,107.863861 
	C16.922710,98.726089 21.080725,89.929848 25.404440,81.376266 
	C28.067650,76.107651 31.948893,71.387733 35.682800,66.742622 
	C41.691570,59.267490 50.775696,56.618675 59.094055,53.058987 
	C84.329765,42.259804 110.051544,32.754623 137.125748,27.637602 
	C150.576996,25.095322 164.132599,24.220289 177.705368,27.667860 
	C207.759552,35.301826 213.074661,64.163368 194.658585,85.945343 
	C181.998032,100.919868 165.612579,110.730286 147.747070,117.915359 
	C133.143005,123.788734 118.183495,128.892609 103.105820,133.419098 
	C96.867836,135.291809 94.465553,139.322571 91.751534,145.072784 
	C97.411392,145.072784 102.497787,144.687897 107.507263,145.145340 
	C122.209267,146.487885 136.993179,147.509659 151.514435,150.001038 
	C158.299911,151.165222 165.222397,154.477783 170.905457,158.485931 
	C181.591995,166.022934 183.369202,178.235641 176.971130,191.883331 
M71.934105,208.755508 
	C78.536911,212.541641 85.600822,213.159698 93.066536,212.395264 
	C105.704643,211.101212 117.289276,206.650131 128.282349,200.728073 
	C137.364487,195.835480 145.920578,190.020767 151.668152,181.029999 
	C156.116165,174.072113 155.034103,167.210434 148.203125,163.482025 
	C144.354538,161.381424 139.884827,159.671005 135.567551,159.310699 
	C119.708183,157.987122 103.798958,157.228531 87.897873,156.484314 
	C86.205330,156.405090 83.665077,157.318985 82.837914,158.614700 
	C76.951584,167.835419 70.957596,177.038895 65.885933,186.713394 
	C61.017040,196.001099 62.941319,201.890488 71.934105,208.755508 
z"/>
<path fill="#FCFDFC" opacity="1.000000" stroke="none" 
	d="
M71.637344,208.533646 
	C62.941319,201.890488 61.017040,196.001099 65.885933,186.713394 
	C70.957596,177.038895 76.951584,167.835419 82.837914,158.614700 
	C83.665077,157.318985 86.205330,156.405090 87.897873,156.484314 
	C103.798958,157.228531 119.708183,157.987122 135.567551,159.310699 
	C139.884827,159.671005 144.354538,161.381424 148.203125,163.482025 
	C155.034103,167.210434 156.116165,174.072113 151.668152,181.029999 
	C145.920578,190.020767 137.364487,195.835480 128.282349,200.728073 
	C117.289276,206.650131 105.704643,211.101212 93.066536,212.395264 
	C85.600822,213.159698 78.536911,212.541641 71.637344,208.533646 
z"/>
</svg>