<svg version="1.1" id="Layer_1" xmlns="http://www.w3.org/2000/svg" xmlns:xlink="http://www.w3.org/1999/xlink" x="0px" y="0px"
	 width="100%" viewBox="0 0 816 304" enable-background="new 0 0 816 304" xml:space="preserve">
<path fill="#000000" opacity="1.000000" stroke="none" 
	d="
M746.854919,16.149578 
	C525.582458,16.138460 304.790405,16.127745 83.998367,16.128494 
	C79.337006,16.128511 74.656288,16.013460 70.017792,16.376354 
	C54.178967,17.615509 43.555920,29.522852 43.823460,45.446644 
	C43.896225,49.777447 43.848495,54.110172 43.872303,58.441929 
	C43.886677,61.056744 42.871853,62.420906 39.993454,62.333454 
	C37.255428,62.250267 36.641823,60.773994 36.681137,58.467163 
	C36.830940,49.676327 35.957230,40.844814 38.787655,32.223331 
	C42.943691,19.564053 54.317814,10.362593 67.711609,9.705067 
	C102.341499,8.005019 136.999451,9.053054 171.642624,9.030519 
	C361.940338,8.906733 552.238159,8.974186 742.535950,8.947611 
	C750.109558,8.946553 757.567017,9.652937 764.486877,12.844464 
	C776.026001,18.166384 781.426147,28.106405 783.097839,40.050484 
	C783.967407,46.262943 783.269958,52.691940 783.324585,59.022739 
	C783.344421,61.321136 782.333313,62.312778 780.004761,62.292442 
	C777.689392,62.272209 776.676331,61.269245 776.694397,58.982273 
	C776.725891,54.983555 776.691101,50.984154 776.665405,46.985161 
	C776.544861,28.217289 765.975403,17.109093 746.854919,16.149578 
z"/>
<path fill="#000000" opacity="1.000000" stroke="none" 
	d="
M651.000122,293.669495 
	C682.331421,293.672394 713.162720,293.660309 743.994019,293.694763 
	C748.689453,293.700012 753.344910,293.314789 757.779358,291.821533 
	C769.297974,287.942780 776.290649,277.736298 776.641907,264.516632 
	C776.757019,260.186340 776.714600,255.851013 776.691284,251.518280 
	C776.678955,249.216858 777.259399,247.705002 780.029358,247.701767 
	C782.810547,247.698547 783.435791,249.226791 783.333618,251.519165 
	C783.008423,258.817993 784.309143,266.194733 782.444153,273.416504 
	C777.998413,290.632355 765.846863,300.293152 748.053101,300.332336 
	C699.223267,300.439880 650.393127,300.404785 601.563110,300.404419 
	C428.574829,300.403076 255.586548,300.398743 82.598282,300.359985 
	C76.622429,300.358643 70.643822,300.712921 64.683678,299.417694 
	C47.935284,295.778015 37.179504,283.033966 36.700821,265.820953 
	C36.580414,261.491180 36.890007,257.141937 36.617168,252.825989 
	C36.316914,248.076294 38.444988,246.930679 42.727070,248.050934 
	C43.978394,249.969574 43.522503,252.147110 43.535370,254.265106 
	C43.563591,258.912262 43.130020,263.538727 44.026154,268.199799 
	C47.249146,284.963593 56.971786,293.461670 74.038849,293.625610 
	C93.035835,293.808075 112.035889,293.671814 131.034607,293.671753 
	C304.189758,293.671417 477.344910,293.670471 651.000122,293.669495 
z"/>
<path fill="#000000" opacity="1.000000" stroke="none" 
	d="
M651.255737,173.038879 
	C651.255737,180.527695 651.419312,187.527756 651.198792,194.515717 
	C651.038330,199.601120 652.740967,202.891464 658.062195,203.752899 
	C659.343933,203.960403 660.744385,204.251938 660.784729,206.695816 
	C649.243225,206.695816 637.739624,206.695816 626.341492,206.695816 
	C625.793945,204.235840 627.205322,203.929306 628.474365,203.532196 
	C633.008667,202.113251 634.562134,198.738678 634.562012,194.323669 
	C634.561523,170.691849 634.579346,147.059998 634.553040,123.428207 
	C634.547791,118.741348 633.021973,114.920616 628.133728,113.253654 
	C627.174133,112.926414 626.287537,112.452591 626.140076,111.014328 
	C627.166870,109.026543 629.217102,109.737648 630.867859,109.728188 
	C643.358398,109.656517 655.850647,109.571861 668.339844,109.715096 
	C675.588257,109.798233 682.509888,111.435547 688.750122,115.366508 
	C696.286560,120.114014 699.304504,127.285301 698.841431,135.780487 
	C698.360901,144.595901 693.998779,151.217606 685.727234,154.883438 
	C683.014221,156.085831 680.214050,157.091568 676.968445,158.379868 
	C686.677979,165.863617 690.544250,176.799240 696.347656,186.395065 
	C701.175842,194.378555 705.935547,202.156326 716.227539,203.770874 
	C717.332825,203.944260 718.126770,204.558502 717.930725,205.771515 
	C717.731995,207.001648 716.638855,207.230957 715.638123,207.226059 
	C708.984375,207.193619 702.274719,207.614944 695.694214,206.886230 
	C689.962952,206.251572 685.795959,202.350052 682.830688,197.438675 
	C676.808228,187.463623 670.879517,177.432022 664.876770,167.445023 
	C662.991699,164.308807 660.561768,162.126816 656.525696,162.008423 
	C652.800659,161.899139 650.773254,162.939835 651.215820,167.052536 
	C651.410645,168.863770 651.252502,170.712982 651.255737,173.038879 
M677.757690,121.862671 
	C672.743225,114.436073 665.089050,113.537468 657.052551,113.283974 
	C652.805908,113.150024 651.051636,114.632828 651.175110,119.061264 
	C651.421082,127.880692 651.127563,136.713837 651.277100,145.537582 
	C651.520142,159.884491 648.734497,157.009018 663.608582,156.926529 
	C672.740784,156.875916 678.607117,151.205063 680.708252,142.323944 
	C682.369324,135.302795 681.197510,128.822922 677.757690,121.862671 
z"/>
<path fill="#000000" opacity="1.000000" stroke="none" 
	d="
M595.213623,193.248901 
	C582.893860,203.475708 568.389038,206.205475 553.437378,206.898956 
	C540.640503,207.492477 527.802490,207.210510 514.982422,207.266068 
	C514.058411,207.270081 513.132629,206.867859 512.275024,206.670059 
	C511.679718,203.585236 514.180237,203.701859 515.605469,202.998825 
	C518.995850,201.326477 520.611633,198.568146 520.469299,194.963882 
	C519.555176,171.826508 520.213501,148.681076 520.126282,125.540924 
	C520.104309,119.692390 519.316162,114.967773 513.066040,112.874390 
	C512.574463,112.709755 512.293030,111.917900 512.038757,111.582336 
	C512.382507,109.663986 513.729797,109.733749 514.819214,109.756920 
	C531.447388,110.110596 548.118530,108.559311 564.703064,110.698563 
	C574.032043,111.901917 582.870361,114.634666 590.881653,119.763962 
	C601.738220,126.714958 607.590942,136.945084 609.099792,149.377319 
	C611.092163,165.793137 607.675049,180.859238 595.213623,193.248901 
M583.643066,130.872467 
	C572.901855,115.958771 557.152527,113.838371 540.517944,114.017159 
	C537.177124,114.053062 537.036377,116.518738 537.035217,118.944313 
	C537.022705,145.418427 537.049133,171.892593 536.999023,198.366592 
	C536.993103,201.500900 538.102783,202.831039 541.403381,202.784149 
	C547.897156,202.691879 554.393066,202.725403 560.802429,201.565231 
	C572.525940,199.443161 582.786560,194.519592 587.307068,182.853790 
	C594.056824,165.434982 593.511414,148.063995 583.643066,130.872467 
z"/>
<path fill="#000000" opacity="1.000000" stroke="none" 
	d="
M71.556496,203.790070 
	C64.176880,206.209030 57.014240,207.414932 49.616207,207.351486 
	C38.961918,207.260101 28.305979,207.366104 17.651503,207.286240 
	C15.794442,207.272339 13.622745,208.024902 12.217358,206.092361 
	C12.140264,204.475967 13.161837,203.944504 14.328161,203.615265 
	C19.484653,202.159653 20.617022,198.213669 20.615475,193.546234 
	C20.607862,170.571335 20.566265,147.596344 20.622612,124.621613 
	C20.635605,119.323753 19.171820,115.124954 13.761679,113.144951 
	C12.811262,112.797119 12.001691,112.173370 12.150882,110.607857 
	C12.529201,110.413544 13.070358,109.891579 13.608376,109.894791 
	C28.564123,109.984245 43.591923,108.434944 58.454884,110.776512 
	C76.289452,113.586227 85.316643,130.599091 77.255310,145.207321 
	C74.244614,150.663101 69.191124,152.856125 63.160290,155.142090 
	C79.513268,158.616486 91.093277,165.914078 88.318527,184.891815 
	C86.888138,194.674896 81.154442,200.684174 71.556496,203.790070 
M37.321007,184.484558 
	C37.332283,188.144821 37.350601,191.805099 37.352791,195.465363 
	C37.354847,198.904846 39.168171,201.142624 42.226337,202.293152 
	C53.507282,206.537247 66.716377,199.617767 69.347763,188.053802 
	C70.239304,184.135818 70.042717,180.119339 69.688683,176.127533 
	C68.910507,167.353088 64.510689,162.107910 55.971127,159.908783 
	C51.404335,158.732727 46.716496,159.193451 42.076881,158.960739 
	C38.303711,158.771484 37.161823,160.443802 37.271103,164.025131 
	C37.468914,170.507828 37.323616,177.000992 37.321007,184.484558 
M37.467056,151.803345 
	C37.766361,152.877274 38.474304,153.491486 39.577053,153.607559 
	C52.771927,154.996521 63.265079,151.378128 64.107574,134.867798 
	C64.885033,119.631943 57.364113,113.407379 43.147354,113.437172 
	C39.323532,113.445183 37.118374,115.040871 37.237228,119.531113 
	C37.514175,129.993790 37.350636,140.468124 37.467056,151.803345 
z"/>
<path fill="#000000" opacity="1.000000" stroke="none" 
	d="
M419.345032,202.715240 
	C421.011261,203.949631 423.470612,203.515701 423.829590,206.706604 
	C416.080475,207.770660 408.417236,207.545517 400.792755,206.916168 
	C400.549072,204.622986 401.871704,204.303345 402.888123,203.965851 
	C408.883453,201.975128 410.832336,197.676712 410.783875,191.636246 
	C410.616943,170.818222 410.442413,149.994049 410.799561,129.181274 
	C410.932617,121.426903 407.702484,116.592216 401.147247,113.362000 
	C400.228241,112.909119 399.347107,112.477394 399.225830,111.302094 
	C399.476898,109.681175 400.795319,109.817116 401.908691,109.720535 
	C420.778839,108.083595 420.732117,108.125328 432.817017,123.036293 
	C447.074310,140.627594 461.426422,158.142029 475.723175,175.701385 
	C476.343872,176.463776 476.822479,177.341858 477.390289,178.200867 
	C479.300842,176.429520 478.707916,174.839142 478.712189,173.445724 
	C478.760742,157.623276 478.591156,141.798370 478.826721,125.979271 
	C478.914185,120.105179 477.678894,115.448677 471.827606,112.992783 
	C471.044220,112.663994 470.523285,111.980423 470.424591,110.313194 
	C477.962036,109.059692 485.518860,109.806053 492.896637,109.852943 
	C493.806976,113.022690 491.761139,113.256302 490.339294,113.867752 
	C485.258331,116.052765 483.296570,119.956963 483.312500,125.367340 
	C483.386566,150.516724 483.334778,175.666473 483.323212,200.816101 
	C483.322510,202.314560 483.388855,203.824341 483.233856,205.309021 
	C482.930756,208.212891 481.405487,208.747223 479.229462,206.962982 
	C478.090576,206.029221 477.228149,204.747314 476.286560,203.585617 
	C457.517029,180.428192 438.763184,157.258026 419.967438,134.121918 
	C418.844635,132.739853 418.044708,130.964676 416.153473,130.275574 
	C414.615356,131.146698 415.162018,132.633972 415.160156,133.839828 
	C415.129608,153.492859 415.169067,173.145996 415.147736,192.799057 
	C415.143616,196.592163 415.535614,200.151718 419.345032,202.715240 
z"/>
<path fill="#000000" opacity="1.000000" stroke="none" 
	d="
M318.656006,163.999878 
	C318.657593,150.505005 318.560577,137.509033 318.707703,124.515823 
	C318.770355,118.982239 317.499420,114.623894 311.513702,112.981300 
	C310.727051,112.765419 310.149017,112.053566 310.226715,110.944695 
	C311.413391,109.063416 313.433075,109.734200 315.133240,109.729340 
	C334.292145,109.674629 353.451752,109.761955 372.609924,109.630615 
	C376.498505,109.603958 378.392090,110.616631 378.475281,114.903488 
	C378.566864,119.623146 379.440826,124.327614 379.961914,128.932312 
	C376.874207,129.881653 376.570190,127.746193 376.024506,126.387115 
	C372.359741,117.260216 364.917847,113.971916 355.866516,113.443161 
	C350.553101,113.132774 345.204926,113.470566 339.877106,113.333427 
	C336.724396,113.252274 335.339386,114.404823 335.374634,117.685814 
	C335.499786,129.346497 335.561401,141.010040 335.425171,152.669922 
	C335.387115,155.925949 336.778656,156.814713 339.626495,156.524673 
	C340.786163,156.406540 341.950653,156.167694 343.106232,156.203217 
	C354.309265,156.547577 360.182251,155.038849 362.004517,141.629471 
	C362.073059,141.125275 362.770935,140.706619 364.044891,139.262878 
	C364.878082,151.288864 365.421692,162.146759 363.181549,173.500595 
	C361.731720,167.700012 360.301727,162.000046 353.407471,161.345352 
	C347.805511,160.813354 342.157227,160.769196 336.330627,160.499481 
	C335.343811,164.988373 335.426208,169.101456 335.421906,173.206589 
	C335.413330,181.369888 335.529327,189.536026 335.342804,197.695236 
	C335.256805,201.456558 336.368530,203.216949 340.439850,203.027359 
	C346.092255,202.764160 351.765442,202.941666 357.429718,202.937729 
	C367.861755,202.930496 375.546448,198.230377 380.831207,189.338974 
	C381.626038,188.001709 382.111084,186.159103 384.670135,186.261353 
	C386.282715,191.017105 384.373199,195.648697 383.740143,200.231171 
	C382.756775,207.349609 382.513519,207.329819 375.108856,207.331848 
	C355.449982,207.337250 335.791016,207.356903 316.132385,207.285645 
	C314.123535,207.278366 311.780884,208.121338 310.106384,205.947952 
	C310.329956,205.460449 310.439514,204.725174 310.741760,204.634888 
	C318.908447,202.194931 318.907227,195.775986 318.711945,188.988159 
	C318.477325,180.831619 318.656342,172.663177 318.656006,163.999878 
z"/>
<path fill="#000000" opacity="1.000000" stroke="none" 
	d="
M768.265259,155.431763 
	C778.724304,156.352219 784.140320,151.127930 785.929993,141.118454 
	C786.391846,141.394928 786.853699,141.671417 787.315552,141.947891 
	C787.315552,152.333435 787.315552,162.718979 787.315552,173.318573 
	C784.235535,172.568512 784.961731,170.557083 784.747070,169.066360 
	C784.139038,164.845230 781.826721,161.993622 777.837158,160.710403 
	C772.022278,158.840118 765.982971,159.341415 760.001892,159.431702 
	C757.796509,159.465012 757.315186,160.985168 757.316956,162.850952 
	C757.328735,175.006973 757.353760,187.163071 757.312866,199.318954 
	C757.304260,201.878769 758.491577,202.946518 760.950317,202.913116 
	C768.274780,202.813599 775.641174,203.193344 782.913025,202.529495 
	C790.791443,201.810257 796.838806,197.510727 801.115601,190.762436 
	C802.192749,189.062897 802.529114,186.582275 805.660034,186.046021 
	C807.064636,190.736282 805.342041,195.243393 804.905029,199.657303 
	C804.143616,207.348022 803.831787,207.325043 796.215332,207.326706 
	C776.898743,207.330902 757.582031,207.352676 738.265625,207.289505 
	C736.236145,207.282883 733.938293,208.043091 732.277466,206.236206 
	C732.054260,204.538483 733.126221,203.986938 734.264343,203.676865 
	C739.443298,202.265808 740.620178,198.383255 740.617249,193.683182 
	C740.602661,170.536591 740.613159,147.389999 740.600342,124.243401 
	C740.597595,119.242668 739.332153,114.979630 733.929443,113.217178 
	C732.919189,112.887650 732.204041,112.237015 732.220337,110.944801 
	C733.433167,109.040939 735.448853,109.738602 737.145874,109.733727 
	C755.796204,109.680084 774.448425,109.830009 793.096252,109.607246 
	C797.908875,109.549759 799.848572,111.178337 799.364685,115.925240 
	C798.909790,120.387337 801.631592,124.893486 799.637756,129.255615 
	C798.420776,129.499344 797.900391,129.026245 797.687683,128.395981 
	C793.587708,116.246025 783.486206,114.088989 772.586365,113.390030 
	C769.103455,113.166679 765.584839,113.509064 762.100342,113.298309 
	C758.314331,113.069305 757.194580,114.763222 757.247742,118.340363 
	C757.403564,128.829071 757.435059,139.323441 757.258484,149.811249 
	C757.194458,153.615250 758.340576,155.455429 762.358643,155.119812 
	C764.164734,154.968964 766.008972,155.275986 768.265259,155.431763 
z"/>
<path fill="#000000" opacity="1.000000" stroke="none" 
	d="
M200.996429,112.265564 
	C193.369537,115.180367 191.207642,120.736099 191.318802,128.200897 
	C191.561829,144.521454 191.418747,160.848785 191.338409,177.172867 
	C191.244690,196.219772 181.352905,207.143860 162.145386,209.143463 
	C153.259079,210.068573 144.521988,208.919128 136.201828,205.482910 
	C122.906960,199.992111 117.073143,189.379364 116.791130,175.619049 
	C116.449875,158.968307 116.589615,142.303787 116.777885,125.648148 
	C116.845665,119.651711 116.055832,114.622108 109.247711,112.841522 
	C108.431519,112.628052 107.945847,111.851135 108.277725,110.277954 
	C119.340660,110.277954 130.534943,110.277954 141.719696,110.277954 
	C141.996399,112.932526 140.263916,113.055321 138.933151,113.556129 
	C135.000687,115.036003 133.326080,117.903885 133.338242,122.057091 
	C133.391769,140.380447 133.091248,158.710098 133.490295,177.024994 
	C133.695435,186.439987 136.357056,195.408051 145.244003,200.515854 
	C154.772629,205.992523 164.792328,205.412582 174.417465,200.632080 
	C183.294388,196.223175 186.594406,188.177505 186.679291,178.775604 
	C186.846237,160.287140 186.695892,141.796021 186.773758,123.306427 
	C186.793045,118.724915 184.703201,115.797157 180.670441,113.926872 
	C179.293793,113.288429 177.191696,113.346794 177.165771,110.880913 
	C178.806870,108.908859 181.123062,109.783936 183.146423,109.731308 
	C187.973862,109.605751 192.808182,109.628387 197.636734,109.731186 
	C199.113632,109.762634 201.285904,109.144569 200.996429,112.265564 
z"/>
<path fill="#000000" opacity="1.000000" stroke="none" 
	d="
M246.321930,123.318619 
	C246.324554,148.259460 246.417450,172.741135 246.245178,197.220932 
	C246.214722,201.547913 247.420685,203.271347 251.894058,202.939865 
	C256.532349,202.596161 261.215332,202.895966 265.877380,202.824326 
	C276.369781,202.663086 284.441498,198.268356 289.696472,189.035522 
	C290.422485,187.759903 290.871643,186.208572 292.703552,186.053253 
	C293.953186,186.422913 294.058014,187.412384 293.935486,188.444962 
	C293.544006,191.743576 293.201416,195.051910 292.673126,198.329605 
	C291.221100,207.338242 291.187500,207.332336 281.758209,207.331253 
	C263.439056,207.329132 245.119858,207.349121 226.800888,207.293182 
	C224.925201,207.287460 222.796097,207.975739 221.361145,206.329910 
	C221.059845,205.342682 221.399689,204.620911 222.010849,204.456421 
	C228.702637,202.655502 229.730133,197.686646 229.695847,191.693680 
	C229.570984,169.877975 229.565292,148.060577 229.704941,126.245018 
	C229.744217,120.107193 228.797989,114.922356 222.043762,112.794395 
	C221.560226,112.642052 221.284058,111.831573 220.252563,110.434967 
	C232.304459,110.434967 243.518799,110.434967 254.733124,110.434967 
	C255.008881,110.859253 255.284637,111.283539 255.560394,111.707825 
	C250.421082,113.948814 245.262161,116.175758 246.321930,123.318619 
z"/>
</svg>